@startuml

  [*] -> State1

  state State2 {
    state "Training" as long0
    long0 : Wax on
    long0 : Wax off
    [*] --> long0
    long0 --> long0 : Doit it!
    long0 --> Rest : Training Done!
    Rest : Sauna
    Rest : Shower
    Rest : Shower
  }

  State1 --> State2 : Succeeded

  State1 --> [*] : Aborted
  State2 --> State3 : Succeeded
  State2 --> [*] : Aborted
  state State3 {
    state "Long State Name" as long1
    long1 : Just a test
    [*] --> long1
    long1 --> long1 : New Data
    long1 --> ProcessData : Enough Data
    ProcessData : Record Stats
  }

  State3 --> State3 : Failed
  State3 --> [*] : Succeeded / Save Result
  State3 --> [*] : Aborted

@enduml
